<?xml version="1.0" encoding="UTF-8" standalone="no"?>
<svg
   xmlns:dc="http://purl.org/dc/elements/1.1/"
   xmlns:cc="http://creativecommons.org/ns#"
   xmlns:rdf="http://www.w3.org/1999/02/22-rdf-syntax-ns#"
   xmlns:svg="http://www.w3.org/2000/svg"
   xmlns="http://www.w3.org/2000/svg"
   viewBox="0 0 839.6087 839.60876"
   height="839.60876"
   width="839.6087"
   xml:space="preserve"
   version="1.1"
   id="svg45659"><metadata
     id="metadata45665"><rdf:RDF><cc:Work
         rdf:about=""><dc:format>image/svg+xml</dc:format><dc:type
           rdf:resource="http://purl.org/dc/dcmitype/StillImage" /><dc:title></dc:title></cc:Work></rdf:RDF></metadata><defs
     id="defs45663"><clipPath
       id="clipPath45677"
       clipPathUnits="userSpaceOnUse"><path
         id="path45679"
         d="M 0,0 672,0 672,672 0,672 0,0 Z" /></clipPath></defs><g
     transform="matrix(1.25,0,0,-1.25,0,839.60876)"
     id="g45667"><g
       id="g45669"><g
         transform="translate(0,-0.312988)"
         id="g45671"><g
           id="g45673"><g
             clip-path="url(#clipPath45677)"
             id="g45675"><g
               id="g45681"><path
                 id="path45683"
                 style="fill:#ffffff;fill-opacity:1;fill-rule:evenodd;stroke:none"
                 d="m 49.391,336.141 c 0,-52.723 12.011,-97.551 38.386,-143.219 26.348,-45.668 59.164,-78.484 104.832,-104.832 45.668,-26.375 90.496,-38.387 143.219,-38.387 52.754,0 97.582,12.012 143.25,38.387 45.668,26.348 78.484,59.164 104.832,104.832 26.375,45.668 38.387,90.496 38.387,143.219 0,52.754 -12.012,97.582 -38.387,143.25 -26.348,45.668 -59.164,78.484 -104.832,104.832 -45.668,26.375 -90.496,38.386 -143.25,38.386 -52.723,0 -97.551,-12.011 -143.219,-38.386 C 146.941,557.875 114.125,525.059 87.777,479.391 61.402,433.723 49.391,388.895 49.391,336.141 Z" /><path
                 id="path45685"
                 style="fill:#ab2524;fill-opacity:1;fill-rule:nonzero;stroke:none"
                 d="m 335.828,672 c -60.215,0 -115.742,-14.875 -167.902,-44.996 -0.004,-0.004 -0.012,-0.008 -0.02,-0.012 C 115.75,596.895 75.105,556.25 45.008,504.09 45.004,504.086 45,504.078 44.996,504.07 14.875,451.91 0,396.383 0,336.141 0,275.926 14.875,220.402 44.996,168.242 45,168.234 45.004,168.227 45.008,168.219 75.105,116.062 115.75,75.418 167.906,45.32 c 0.008,-0.004 0.016,-0.008 0.02,-0.011 52.16,-30.121 107.687,-44.997 167.902,-44.997 60.242,0 115.77,14.876 167.93,44.997 0.008,0.003 0.015,0.007 0.019,0.011 52.157,30.098 92.805,70.746 122.899,122.903 l 0.004,-0.004 c 30.129,52.168 45.008,107.699 45.008,167.922 0,60.242 -14.879,115.769 -45,167.929 -0.004,0.008 -0.004,0.016 -0.008,0.02 l -0.004,0 c -30.094,52.16 -70.742,92.805 -122.899,122.902 -0.004,0.004 -0.011,0.008 -0.019,0.012 C 451.598,657.125 396.07,672 335.828,672 Z m 0,-98.777 c 45.254,0 79.379,-9.145 118.547,-31.77 0.008,-0.004 0.016,-0.008 0.02,-0.012 39.164,-22.593 64.14,-47.57 86.734,-86.73 0.004,-0.008 0.008,-0.016 0.012,-0.023 22.625,-39.168 31.769,-73.29 31.769,-118.547 0,-45.223 -9.144,-79.348 -31.769,-118.516 -0.004,-0.008 -0.008,-0.016 -0.012,-0.02 -22.594,-39.164 -47.57,-64.14 -86.734,-86.734 -0.004,-0.004 -0.012,-0.008 -0.02,-0.012 C 415.207,108.234 381.086,99.09 335.828,99.09 c -45.223,0 -79.348,9.144 -118.519,31.769 -0.004,0.004 -0.012,0.008 -0.02,0.012 -39.16,22.594 -64.137,47.57 -86.73,86.734 -0.004,0.004 -0.008,0.012 -0.012,0.02 -22.625,39.168 -31.77,73.293 -31.77,118.516 0,45.257 9.145,79.379 31.77,118.547 0.004,0.007 0.008,0.015 0.012,0.023 22.593,39.16 47.57,64.137 86.73,86.73 0.008,0.004 0.016,0.008 0.02,0.012 39.171,22.625 73.296,31.77 118.519,31.77 z" /><path
                 id="path45687"
                 style="fill:#000000;fill-opacity:1;fill-rule:nonzero;stroke:none"
                 d="m 224.941,505.07 c -62.101,0.051 -61.253,-59.043 -61.253,-59.043 l 0,-13.297 33.351,0 0,13.297 c 0,0 -0.254,26.672 27.902,26.551 28.157,-0.121 27.93,-26.551 27.93,-26.551 l 0,-40.496 c 0,0 0.27,-36.281 -35.601,-36.152 l -10.715,0 0,-32.508 c 0,0.016 10.715,0 10.715,0 35.871,0.129 35.601,-36.148 35.601,-36.148 l 0,-70.899 c 0,0 0.227,-26.449 -27.93,-26.551 -28.156,-0.101 -27.902,26.551 -27.902,26.551 0,0 0.125,21.781 0,25.836 -10.789,-0.035 -22.562,0.035 -33.351,0 0.019,-7.594 0,-25.836 0,-25.836 0,0 -0.032,-59.094 61.253,-59.047 61.286,0.051 61.352,59.047 61.352,59.047 l 0,70.899 c 0,0 0.203,32.105 -21.926,52.402 22.129,20.297 21.926,52.406 21.926,52.406 l 0,40.496 c 0,0 0.75,58.996 -61.352,59.043 z" /><path
                 id="path45689"
                 style="fill:#000000;fill-opacity:1;fill-rule:evenodd;stroke:none"
                 d="m 453.727,280.328 0,111.129 8.711,0 0,-68.582 15.425,27.25 9.938,0 -13.305,-23.363 11.5,-46.434 -8.969,0 -8.754,35.195 -5.835,-10.257 0,-24.938 -8.711,0" /><path
                 id="path45691"
                 style="fill:#000000;fill-opacity:1;fill-rule:evenodd;stroke:none"
                 d="m 508.215,350.867 c -2.699,-0.004 -4.914,-0.484 -6.754,-1.265 l 0,0.46 -8.68,0 0,-69.734 8.711,0 0,54.727 c 0,0 -0.039,6.953 6.742,6.933 6.778,0.02 6.739,-6.933 6.739,-6.933 l 0,-54.727 8.715,0 0,54.727 c 0,0 -0.036,6.953 6.746,6.933 6.781,0.02 6.742,-6.933 6.742,-6.933 l 0,-54.727 8.711,0 0,54.727 c 0,0 0.187,15.793 -15.442,15.812 l -0.027,0 c -5.32,-0.008 -8.797,-1.84 -11.086,-4.254 -2.285,2.414 -5.77,4.246 -11.086,4.254 l -0.031,0 z" /><path
                 id="path45693"
                 style="fill:#000000;fill-opacity:1;fill-rule:nonzero;stroke:none"
                 d="m 369.965,505.07 c -62.102,0.051 -61.258,-59.047 -61.258,-59.047 -0.008,-72.066 0.016,-144.132 0,-216.199 0,0 -0.027,-59.094 61.258,-59.043 61.281,0.047 61.351,59.043 61.351,59.043 l 0,216.199 c 0,0 0.746,59 -61.351,59.047 z m 0,-32.492 c 28.156,-0.121 27.926,-26.555 27.926,-26.555 l 0,-216.199 c 0,0 0.23,-26.449 -27.926,-26.551 -28.156,-0.101 -27.906,26.551 -27.906,26.551 0.054,72.063 0,144.133 0,216.199 0,0 -0.25,26.676 27.906,26.555 z" /></g></g></g></g></g></g></svg>